<?xml version="1.0" encoding="UTF-8"?>
<svg version="1.1" xmlns="http://www.w3.org/2000/svg" width="1080" height="1080">
<path d="M0 0 C356.4 0 712.8 0 1080 0 C1080 356.4 1080 712.8 1080 1080 C723.6 1080 367.2 1080 0 1080 C0 723.6 0 367.2 0 0 Z " fill="#FEFEFE" transform="translate(0,0)"/>
<path d="M0 0 C38.72726346 -0.02291327 77.45452589 -0.04052206 116.18179477 -0.05106533 C120.75897321 -0.05231596 125.33615165 -0.05361029 129.91333008 -0.05493164 C130.82452354 -0.05519395 131.73571701 -0.05545626 132.67452239 -0.05572652 C147.40807131 -0.06007203 162.14161631 -0.06795343 176.87516291 -0.0771528 C192.00497113 -0.08652045 207.1347773 -0.0920622 222.2645883 -0.09408849 C231.59254966 -0.09545726 240.92049995 -0.09977278 250.2484579 -0.10791647 C256.6541183 -0.11322234 263.05977302 -0.11479559 269.46543545 -0.11350138 C273.15531183 -0.11286398 276.84516891 -0.11380721 280.53504181 -0.11920547 C317.70259212 -0.17048339 317.70259212 -0.17048339 328 3 C328.70914551 3.21479004 329.41829102 3.42958008 330.14892578 3.65087891 C355.35378342 11.72821709 373.28365581 26.52080479 385.375 49.9375 C390.68005808 60.71706519 393.53360543 71.96702002 394 84 C394.09474609 85.13888672 394.09474609 85.13888672 394.19140625 86.30078125 C395.2660644 106.92728455 383.79735719 126.64262344 371.5 142.3125 C368.22756746 145.83036498 364.66918278 148.90542509 361 152 C359.66608367 153.14515459 358.33270803 154.29093945 357 155.4375 C356.01 156.283125 355.02 157.12875 354 158 C357.24372027 169.53322764 372.04511049 180.73093325 380.99609375 188.26171875 C382.5524435 189.61176873 384.05568229 191.02314971 385.53515625 192.45703125 C386.41042969 193.29621094 387.28570313 194.13539063 388.1875 195 C388.98542969 195.78375 389.78335937 196.5675 390.60546875 197.375 C392.86734675 199.2328143 392.86734675 199.2328143 395.53515625 199.0234375 C398.63813008 197.73503949 400.07343597 196.18044739 402.25 193.625 C403.03503906 192.71363281 403.82007813 191.80226563 404.62890625 190.86328125 C406.83716445 188.19663667 409.01628812 185.50933114 411.1875 182.8125 C415.49212426 177.48260622 420.13196658 172.53283662 424.83544922 167.55908203 C429.07986936 163.0477317 433.05474787 158.38794526 436.921875 153.546875 C439.75039906 150.08033799 442.76972134 146.80399316 445.7890625 143.50390625 C448.81675274 140.07502031 451.60048425 136.47411159 454.37109375 132.8359375 C455.17740234 131.92714844 455.17740234 131.92714844 456 131 C456.66 131 457.32 131 458 131 C458.226875 130.443125 458.45375 129.88625 458.6875 129.3125 C460.35666538 126.37158957 462.6135675 124.3864325 465 122 C465.433125 121.236875 465.86625 120.47375 466.3125 119.6875 C468.425773 116.32191708 471.06158175 113.85839488 473.8984375 111.09375 C476.43860678 108.56302372 478.76743946 105.89540424 481.1015625 103.17578125 C483.26745005 100.69347802 485.50876957 98.28944855 487.75 95.875 C491.50833588 91.75845662 495.02162548 87.52838494 498.4375 83.125 C502.20278496 78.27500708 506.00831167 73.46873841 509.9375 68.75 C510.38601318 68.20102051 510.83452637 67.65204102 511.29663086 67.08642578 C514.3415328 63.46151515 516.64086445 61.27114451 521.42289734 60.7215271 C522.32707901 60.70820343 523.23126068 60.69487976 524.1628418 60.68115234 C525.71597076 60.65136292 525.71597076 60.65136292 527.30047607 60.62097168 C528.42206116 60.6094104 529.54364624 60.59784912 530.69921875 60.5859375 C531.8709967 60.56648071 533.04277466 60.54702393 534.25006104 60.52697754 C538.06246653 60.46649211 541.8748857 60.42025447 545.6875 60.375 C548.28915116 60.33790946 550.89079513 60.3003112 553.49243164 60.26220703 C567.63990909 60.06374509 581.78857918 59.90699656 595.9375 59.875 C596.95763687 59.87098175 596.95763687 59.87098175 597.99838257 59.86688232 C599.86219431 59.86120251 601.72602624 59.86390902 603.58984375 59.8671875 C604.59909912 59.86831543 605.60835449 59.86944336 606.64819336 59.87060547 C609 60 609 60 611 61 C611.84390536 66.48538481 609.84175706 69.25630631 606.86279297 73.5769043 C603.72984362 77.6522021 600.08773472 81.14557686 596.375 84.6875 C591.63958405 89.2317093 587.51985691 93.46187651 584 99 C582.2109375 100.73046875 582.2109375 100.73046875 580.375 102.1875 C572.8691066 108.51928717 566.49552644 116.04975088 560.66796875 123.9296875 C558.61513294 126.47770384 556.32721459 128.70020473 554 131 C552.11458562 133.01236922 550.23917082 135.03073558 548.375 137.0625 C547.85719971 137.62541748 547.33939941 138.18833496 546.8059082 138.76831055 C545.73257969 139.93558181 544.65974623 141.10330849 543.58740234 142.27148438 C542.06660531 143.92747376 540.54339024 145.58120352 539.01953125 147.234375 C538.07542117 148.26032497 537.13140663 149.28636285 536.1875 150.3125 C534.94033203 151.66794922 534.94033203 151.66794922 533.66796875 153.05078125 C531.63117934 155.30228345 529.62725458 157.57148719 527.63671875 159.86328125 C524.06256324 163.96083852 520.3613766 167.92564171 516.625 171.875 C511.80793012 176.98846876 507.04349301 182.13629991 502.37109375 187.3828125 C499.89713635 190.11353978 497.37642138 192.79507964 494.84863281 195.47583008 C489.3417971 201.31938858 484.09703501 207.22179653 479.09375 213.50390625 C476.29074109 216.84555306 473.21597347 219.84397398 470.04296875 222.83203125 C467.88254577 224.99398569 467.88254577 224.99398569 466.16015625 227.84375 C463.57228046 231.62495007 460.55390711 234.53909166 457.25 237.6875 C451.37850413 243.40094344 446.66311616 249.25925783 442 256 C438.24424854 260.97383302 435.20333317 261.62126733 429.32958984 262.60510254 C422.97595503 263.35865909 416.60645187 263.28607357 410.21875 263.265625 C408.71382586 263.26697631 407.20890216 263.26892069 405.70397949 263.27142334 C402.56742144 263.27435273 399.43097818 263.27014801 396.29443359 263.26074219 C392.30384936 263.24934895 388.3135343 263.25592024 384.3229599 263.26788712 C381.22058132 263.27516519 378.11826501 263.27279071 375.0158844 263.26763153 C373.54569974 263.26631142 372.07550914 263.26788425 370.60533142 263.27259064 C354.94682732 263.31173493 345.34758079 262.24608166 334 251.16015625 C332.66144924 249.79938345 331.32813719 248.43343849 330 247.0625 C325.4129786 242.35453174 320.76489549 237.84469202 315.78125 233.55639648 C313.58189591 231.63467467 311.53321214 229.59577251 309.5 227.5 C306.00658392 223.94593434 302.38129093 220.67034612 298.53125 217.5078125 C297 216 297 216 296 213 C295.43796875 212.72542969 294.8759375 212.45085937 294.296875 212.16796875 C291.02453079 210.50397059 288.7620942 207.93087511 286.25 205.3125 C283.04652968 201.99462003 279.81425206 198.80089667 276.30566406 195.8034668 C271.95925837 192.01939638 267.89312172 188.00368132 263.84375 183.90625 C263.0971814 183.15589478 262.35061279 182.40553955 261.5814209 181.63244629 C258.42298888 178.45783496 255.27060721 175.27724084 252.11767578 172.09716797 C249.79930255 169.76059639 247.4778448 167.42712001 245.15625 165.09375 C244.45705444 164.3862561 243.75785889 163.67876221 243.03747559 162.9498291 C239.09722094 158.99027217 235.05955392 155.21288208 230.82069397 151.57400513 C227.76792333 148.93485944 224.83859426 146.17883214 221.9375 143.375 C221.34517578 142.8284375 220.75285156 142.281875 220.14257812 141.71875 C218.46484375 140.0859375 218.46484375 140.0859375 216 137 C216.34594727 134.30712891 216.34594727 134.30712891 217 132 C218.35397636 131.99453156 218.35397636 131.99453156 219.73530579 131.98895264 C228.28217526 131.95093416 236.82866852 131.89392536 245.3752718 131.81609726 C249.76818043 131.77675006 254.16089243 131.74449954 258.55395508 131.72900391 C262.80119176 131.71375258 267.0478874 131.67915912 271.29488182 131.63169098 C272.90736347 131.61696391 274.51992241 131.60896402 276.13247108 131.60811615 C287.93830555 131.59567682 298.70161293 130.56664379 308.21875 122.82421875 C311.62382832 119.33700038 313.85669101 115.34671075 316 111 C316.34160156 110.33613281 316.68320312 109.67226563 317.03515625 108.98828125 C320.73577679 100.22727727 320.66836986 87.32239213 317.4375 78.4375 C311.59920763 66.59817541 302.47447732 59.31454362 290.2265625 54.7265625 C286.7222178 53.58303949 283.61259152 52.87542927 279.91581345 52.8613348 C279.10666827 52.85586036 278.29752309 52.85038591 277.46385837 52.84474558 C276.58059162 52.84376747 275.69732488 52.84278936 274.78729248 52.84178162 C273.84465774 52.83684364 272.902023 52.83190566 271.93082356 52.82681805 C268.76475657 52.81143102 265.59870987 52.80307913 262.43261719 52.79467773 C260.16604432 52.78510016 257.89947324 52.77509015 255.63290405 52.76467896 C249.47219181 52.73761076 243.31147189 52.71661154 237.15073299 52.69667697 C230.71515944 52.67482925 224.27960961 52.64743462 217.84405518 52.62062073 C207.03992705 52.57635555 196.23579169 52.53552307 185.43164062 52.49731445 C174.30337576 52.45795023 163.17512173 52.41652178 152.046875 52.37231445 C151.36091691 52.36959018 150.67495882 52.36686591 149.96821412 52.36405908 C146.52696014 52.35037945 143.08570632 52.33665921 139.64445257 52.32291877 C111.09632444 52.20898271 82.54817228 52.10224005 54 52 C56.22956221 55.88405003 58.26523411 58.30233358 61.8125 61.0625 C62.79089844 61.83980469 63.76929688 62.61710937 64.77734375 63.41796875 C65.30054199 63.83353027 65.82374023 64.2490918 66.36279297 64.67724609 C69.2541056 67.01323355 72.06135022 69.44651975 74.875 71.875 C78.91548993 75.3563693 82.96763197 78.82140876 87.05200195 82.2512207 C91.68467464 86.14255511 96.23349514 90.09006576 100.6875 94.1875 C105.61220321 98.70537991 110.73468663 102.88804098 116 107 C122.32052356 111.93602792 128.32907573 117.07688018 134.23046875 122.5078125 C137.71320196 125.64178117 141.33504585 128.57425373 144.98046875 131.515625 C148.56654249 134.46613328 152.06495366 137.50809553 155.5625 140.5625 C160.42379314 144.80362817 165.34444786 148.92237257 170.4140625 152.9140625 C174.26688186 156.02192585 178.00001198 159.26533178 181.74707031 162.49926758 C185.39194823 165.63912631 189.07546034 168.71954347 192.8125 171.75 C193.69035156 172.46929688 194.56820312 173.18859375 195.47265625 173.9296875 C197.11845352 175.27786764 198.7717783 176.61692711 200.43359375 177.9453125 C209.18709036 185.23743278 215.9147215 194.96337732 217.29980469 206.49633789 C217.43668582 209.10981827 217.4672556 211.69568654 217.4375 214.3125 C217.43137695 215.23168213 217.42525391 216.15086426 217.41894531 217.09790039 C217.16672522 228.10148707 214.37271321 237.16676852 206.8125 245.375 C205.884375 246.24125 204.95625 247.1075 204 248 C203.00806641 248.96486328 203.00806641 248.96486328 201.99609375 249.94921875 C192.86793087 258.53762939 184.61628095 261.16405132 172.1985321 261.12025452 C170.86905295 261.12153615 170.86905295 261.12153615 169.51271564 261.12284368 C166.54320587 261.12449063 163.57375261 261.11898993 160.60424805 261.11352539 C158.47545879 261.11324332 156.34666944 261.11340163 154.21788025 261.1139679 C148.43736044 261.11425511 142.65686134 261.10837062 136.87634635 261.10139394 C130.83584431 261.09514779 124.79534181 261.0945556 118.75483704 261.09336853 C107.31564153 261.09025895 95.87645557 261.08205056 84.43726426 261.07201904 C71.41442275 261.06084636 58.39158078 261.05534454 45.36873567 261.05032361 C18.57915182 261.03986765 -8.21042356 261.0222754 -35 261 C-35.01402176 258.94151753 -35.02396792 256.88300707 -35.03222656 254.82449341 C-35.03820862 253.678165 -35.04419067 252.53183659 -35.050354 251.35077095 C-34.98173439 246.78452783 -34.45322913 242.37328636 -33.75 237.8671875 C-33.61360107 236.982659 -33.47720215 236.09813049 -33.33666992 235.1867981 C-33.04667578 233.34590989 -32.75067451 231.50595814 -32.44873047 229.66699219 C-31.99594788 226.84978778 -31.59403586 224.02787673 -31.19140625 221.203125 C-30.9015376 219.40314385 -30.60867793 217.60364125 -30.3125 215.8046875 C-30.20067383 214.96412811 -30.08884766 214.12356873 -29.97363281 213.25753784 C-29.55502435 210.92162647 -29.05211608 209.12394984 -28 207 C-20.70925631 203.02075794 -12.85539786 203.558023 -4.77148438 203.56762695 C-3.23337013 203.55860001 -1.69526307 203.54827051 -0.15716553 203.53674316 C3.9992722 203.50925641 8.15557311 203.49990002 12.31208992 203.49388909 C16.66298935 203.48448367 21.01378747 203.45827857 25.36462402 203.43388367 C33.59500823 203.39027451 41.8253727 203.36169329 50.05583715 203.33856028 C59.42954248 203.31147863 68.8031456 203.26756898 78.17677784 203.22227156 C97.45113121 203.12950528 116.72551161 203.05778789 136 203 C134.74096498 201.5577516 133.47819155 200.11876618 132.21386719 198.68115234 C131.51106628 197.87946625 130.80826538 197.07778015 130.08416748 196.25180054 C127.3776029 193.32754247 124.45220519 190.97452497 121.25 188.625 C116.61959306 185.11244882 112.22673921 181.4893139 108 177.5 C103.24270216 173.02197996 98.249203 168.97632039 93.0769043 164.98876953 C88.67249234 161.57689251 84.5306638 157.9525612 80.42578125 154.18359375 C75.2295292 149.50613015 69.74074044 145.1668247 64.2578125 140.83203125 C59.91839507 137.40041479 55.8678512 133.96454748 52 130 C46.18302327 124.577214 40.16456655 119.45098395 33.984375 114.44921875 C30.61238388 111.68189096 27.30340805 108.84846108 24 106 C18.96679656 101.66392182 13.87789597 97.4097549 8.72265625 93.21875 C3.77819972 89.1894081 -1.11360163 85.09937342 -6 81 C-6.75539063 80.38253906 -7.51078125 79.76507813 -8.2890625 79.12890625 C-16.79178539 72.02141781 -23.87252822 63.45531746 -25.38183594 52.13647461 C-25.53502453 49.1210122 -25.55567152 46.14374019 -25.5 43.125 C-25.48646484 42.06506836 -25.47292969 41.00513672 -25.45898438 39.91308594 C-25.08665494 25.85548519 -20.34403808 13.6543459 -9.9375 3.75 C-6.37816017 1.62954223 -4.07527659 1.59247234 0 2 C0 1.34 0 0.68 0 0 Z " fill="#DD1F22" transform="translate(266,404)"/>
<path d="M0 0 C0.33 1.32 0.66 2.64 1 4 C-4.49198177 5.84315334 -9.2718417 6.28150016 -15.04197693 6.24050903 C-15.93000521 6.24221788 -16.8180335 6.24392673 -17.73297173 6.24568737 C-20.6963319 6.2489708 -23.65946357 6.23799745 -26.62280273 6.22705078 C-28.75188695 6.22648642 -30.88097155 6.22680371 -33.01005554 6.22793579 C-38.78221838 6.22850933 -44.55429801 6.21675474 -50.32644153 6.20278788 C-56.36159006 6.19028078 -62.39674053 6.18911003 -68.43190002 6.18673706 C-79.85687634 6.18052224 -91.28181436 6.16411136 -102.70677382 6.14403808 C-115.71514764 6.12167917 -128.72352329 6.11068566 -141.73191154 6.10064721 C-168.48796226 6.07974517 -195.24397898 6.04456911 -222 6 C-222 5.01 -222 4.02 -222 3 C-218.41037341 0.76533166 -215.43266732 0.74056997 -211.25404358 0.7215271 C-210.57592178 0.7157347 -209.89779999 0.7099423 -209.19912905 0.70397437 C-206.92575463 0.68696797 -204.65258329 0.68409673 -202.37915039 0.68115234 C-200.74715683 0.67185071 -199.11516801 0.66168168 -197.48318481 0.65071106 C-193.03633728 0.62332351 -188.58952168 0.60821919 -184.14261174 0.59528303 C-179.44574147 0.57957804 -174.74893407 0.55277811 -170.05210876 0.5272522 C-162.12028915 0.48567109 -154.18846571 0.45123498 -146.2565918 0.421875 C-135.23773221 0.38108635 -124.21895704 0.32830512 -113.20016408 0.2726016 C-75.46706137 0.08307 -37.73365384 -0.08263076 0 0 Z " fill="#DC3839" transform="translate(453,659)"/>
<path d="M0 0 C77.88 0 155.76 0 236 0 C235.67 1.32 235.34 2.64 235 4 C157.12 4 79.24 4 -1 4 C-0.67 2.68 -0.34 1.36 0 0 Z " fill="#CA494B" transform="translate(313,452)"/>
<path d="M0 0 C105.6 0 211.2 0 320 0 C320 0.33 320 0.66 320 1 C309.2254956 1.5807359 298.45506004 2.00828619 287.66796875 2.25390625 C286.76760895 2.27464706 285.86724915 2.29538788 284.93960571 2.3167572 C280.35959582 2.42088653 275.77954193 2.51792063 271.19921875 2.60717773 C269.49088264 2.64424073 267.78254918 2.68142608 266.07421875 2.71875 C265.27412888 2.73229019 264.474039 2.74583038 263.64970398 2.75978088 C260.02422364 2.50923035 260.02422364 2.50923035 257 4 C254.7470898 4.09706134 252.49106821 4.12186638 250.23606873 4.12025452 C249.52059264 4.12110894 248.80511655 4.12196337 248.06795937 4.12284368 C245.65262186 4.12450058 243.23735267 4.11897371 240.82202148 4.11352539 C239.09775799 4.11324354 237.37349438 4.11340121 235.64923096 4.1139679 C230.95314853 4.11425595 226.25709141 4.10835802 221.56101489 4.10139394 C216.65892841 4.09516164 211.75684142 4.0945567 206.85475159 4.09336853 C197.56517104 4.09025485 188.2756022 4.08204096 178.98602682 4.07201904 C168.4130504 4.06085905 157.84007343 4.05534774 147.26709259 4.05032361 C125.51138851 4.03985838 103.75569499 4.02225823 82 4 C82 3.34 82 2.68 82 2 C81.44465576 2.00222061 80.88931152 2.00444122 80.31713867 2.00672913 C53.5263413 2.10879288 26.77056165 2.14617754 0 1 C0 0.67 0 0.34 0 0 Z " fill="#961012" transform="translate(267,405)"/>
<path d="M0 0 C0.8125 1.640625 0.8125 1.640625 1 4 C-0.59998434 6.12119136 -2.13880276 7.88401819 -4 9.75 C-4.95949623 10.74367007 -5.91780929 11.73848385 -6.875 12.734375 C-7.37950684 13.25435059 -7.88401367 13.77432617 -8.40380859 14.31005859 C-10.12481261 16.13214329 -11.77193789 18.00502856 -13.4140625 19.8984375 C-16.96562517 23.99024337 -20.6518324 27.93960365 -24.375 31.875 C-29.19206988 36.98846876 -33.95650699 42.13629991 -38.62890625 47.3828125 C-41.10286365 50.11353978 -43.62357862 52.79507964 -46.15136719 55.47583008 C-51.6582029 61.31938858 -56.90296499 67.22179653 -61.90625 73.50390625 C-64.70925891 76.84555306 -67.78402653 79.84397398 -70.95703125 82.83203125 C-73.11937122 84.99927469 -73.11937122 84.99927469 -74.87109375 87.86328125 C-77.32642269 91.48094939 -80.12225325 94.34452767 -83.25 97.375 C-83.80429687 97.92027344 -84.35859375 98.46554687 -84.9296875 99.02734375 C-86.28188731 100.35622977 -87.6403035 101.67878548 -89 103 C-90.32 102.34 -91.64 101.68 -93 101 C-89.92157219 96.04411128 -86.33903014 91.95800297 -82.3125 87.75 C-81.05655555 86.42257109 -79.8013475 85.09444505 -78.546875 83.765625 C-77.93908203 83.12302734 -77.33128906 82.48042969 -76.70507812 81.81835938 C-74.45072882 79.41423658 -72.25293747 76.96235385 -70.0625 74.5 C-67.03634774 71.11026198 -63.90583338 67.88131202 -60.66796875 64.6953125 C-58.31501198 62.30378267 -56.13964742 59.7742878 -53.94921875 57.234375 C-51.66979306 54.62148624 -49.33787647 52.06069979 -47 49.5 C-43.58852236 45.7601997 -40.22882925 41.98549134 -36.9140625 38.16015625 C-34.94142196 35.9338905 -32.92325977 33.75321094 -30.89868164 31.57421875 C-26.80691261 27.16591019 -22.84885018 22.76914849 -19.4140625 17.81640625 C-17.4800845 15.33215275 -15.23203941 13.21890977 -13 11 C-10.41739937 8.0916306 -7.85633241 5.16602376 -5.3046875 2.23046875 C-3 0 -3 0 0 0 Z " fill="#D75659" transform="translate(807,544)"/>
<path d="M0 0 C4.00499259 28.82164311 -2.20041292 49.36244233 -19.33203125 72.82421875 C-23.38469459 77.98831484 -28.55608888 82.37072592 -34 86 C-34.66 84.35 -35.32 82.7 -36 81 C-35.01773438 80.12214844 -35.01773438 80.12214844 -34.015625 79.2265625 C-15.8203831 62.11069935 -5.32193931 41.73001149 -4.46875 16.703125 C-4.4378125 15.56359375 -4.406875 14.4240625 -4.375 13.25 C-4.33632813 12.0640625 -4.29765625 10.878125 -4.2578125 9.65625 C-4.16473915 6.77097625 -4.07891059 3.88568979 -4 1 C-1 0 -1 0 0 0 Z " fill="#E65558" transform="translate(658,472)"/>
<path d="M0 0 C0.73046875 1.6875 0.73046875 1.6875 1 4 C-0.51171875 6.4375 -0.51171875 6.4375 -2.6875 9 C-3.39261719 9.845625 -4.09773437 10.69125 -4.82421875 11.5625 C-5.54222656 12.366875 -6.26023437 13.17125 -7 14 C-7.52207031 14.721875 -8.04414062 15.44375 -8.58203125 16.1875 C-16.23142129 21.92145312 -28.62835311 20.29492562 -37.78125 20.265625 C-39.28617414 20.26697631 -40.79109784 20.26892069 -42.29602051 20.27142334 C-45.43257856 20.27435273 -48.56902182 20.27014801 -51.70556641 20.26074219 C-55.69615064 20.24934895 -59.6864657 20.25592024 -63.6770401 20.26788712 C-66.77941868 20.27516519 -69.88173499 20.27279071 -72.9841156 20.26763153 C-74.45430026 20.26631142 -75.92449086 20.26788425 -77.39466858 20.27259064 C-94.39993935 20.31510167 -94.39993935 20.31510167 -102 18 C-102.66 17.34 -103.32 16.68 -104 16 C-102.98015518 15.99635437 -101.96031036 15.99270874 -100.90956116 15.98895264 C-91.27310142 15.95192473 -81.63695894 15.8940671 -72.000741 15.81609726 C-67.04727464 15.77667894 -62.09398454 15.7444628 -57.14038086 15.72900391 C-52.35502075 15.7138001 -47.57014542 15.67928865 -42.78500175 15.63169098 C-40.96432153 15.61691551 -39.14357209 15.6089612 -37.32283211 15.60811615 C-23.98992467 16.02960516 -23.98992467 16.02960516 -12 11 C-9.6984961 8.13124461 -9.6984961 8.13124461 -8 5 C-3.54347826 0 -3.54347826 0 0 0 Z " fill="#CD4E4F" transform="translate(714,647)"/>
<path d="M0 0 C0.82007538 0.01850006 1.64015076 0.03700012 2.4850769 0.05606079 C3.8348613 0.09423416 3.8348613 0.09423416 5.21191406 0.13317871 C7.19742776 0.17947031 9.18294212 0.22573347 11.16845703 0.27197266 C12.23207458 0.29872574 13.29569214 0.32547882 14.39154053 0.3530426 C35.54381156 0.87849215 56.69455247 1.16353636 77.85253906 1.31091309 C79.81622437 1.32509781 79.81622437 1.32509781 81.81958008 1.33956909 C92.56812164 1.41696715 103.31670604 1.48723638 114.06530762 1.5557251 C123.45275115 1.61565227 132.84015985 1.67905308 142.22753906 1.74841309 C143.50283478 1.75779907 144.77813049 1.76718506 146.09207153 1.77685547 C166.06396846 1.93004294 186.01861879 2.28405252 205.97753906 3.02966309 C205.97753906 3.35966309 205.97753906 3.68966309 205.97753906 4.02966309 C135.68753906 4.02966309 65.39753906 4.02966309 -7.02246094 4.02966309 C-7.02246094 3.03966309 -7.02246094 2.04966309 -7.02246094 1.02966309 C-4.26442894 0.11031909 -2.8195843 -0.07344794 0 0 Z " fill="#C54444" transform="translate(238.0224609375,660.9703369140625)"/>
<path d="M0 0 C0.33 0.99 0.66 1.98 1 3 C4.02282643 4.03547047 4.02282643 4.03547047 7.5625 4.6875 C9.35880859 5.06455078 9.35880859 5.06455078 11.19140625 5.44921875 C12.11824219 5.63097656 13.04507813 5.81273437 14 6 C13.34 7.65 12.68 9.3 12 11 C7.05 9.35 2.1 7.7 -3 6 C-2.67 4.68 -2.34 3.36 -2 2 C-79.55 2 -157.1 2 -237 2 C-237 1.67 -237 1.34 -237 1 C-210.97164177 0.86860844 -184.94327888 0.73817752 -158.91491032 0.60884857 C-146.82583963 0.54875908 -134.73677058 0.488371 -122.64770508 0.42724609 C-112.09435416 0.37388689 -101.54100045 0.32112242 -90.98764318 0.26903296 C-85.41477995 0.24150657 -79.84191841 0.21370909 -74.26906013 0.18519592 C-49.51249909 0.05872986 -24.75691747 -0.03785934 0 0 Z " fill="#E02E31" transform="translate(551,450)"/>
<path d="M0 0 C26.4 0 52.8 0 80 0 C80 1.32 80 2.64 80 4 C53.27 4 26.54 4 -1 4 C-0.34 3.34 0.32 2.68 1 2 C0.67 1.34 0.34 0.68 0 0 Z " fill="#AE171A" transform="translate(292,610)"/>
<path d="M0 0 C0.66 0 1.32 0 2 0 C2.8125 2.1875 2.8125 2.1875 3 5 C1.40111047 6.91866744 -0.13054929 8.36956582 -2 10 C-8.56044038 16.25648176 -14.35633568 22.91235126 -20 30 C-23.14406827 33.88914695 -26.46255846 37.46255846 -30 41 C-33.02520144 44.31088657 -36.01601636 47.65195735 -39 51 C-40.32 49.68 -41.64 48.36 -43 47 C-41.78086 45.679265 -40.5617118 44.35853756 -39.3425293 43.0378418 C-38.26833849 41.87406648 -37.19428559 40.71016386 -36.12036133 39.54614258 C-33.34251498 36.5356309 -30.56270107 33.52700254 -27.77734375 30.5234375 C-23.07154785 25.44521927 -18.39255942 20.3545166 -13.86328125 15.1171875 C-4.66153846 4.66153846 -4.66153846 4.66153846 0 0 Z " fill="#D95E60" transform="translate(850,494)"/>
<path d="M0 0 C5.52753086 4.97319396 6.96784261 11.76771386 7.39453125 18.97265625 C7.80952439 32.27288551 6.72142811 44.72704131 -2.75 54.875 C-3.1625 55.24625 -3.575 55.6175 -4 56 C-4.99 55.67 -5.98 55.34 -7 55 C-5.49543717 49.93919776 -3.34611982 45.26185349 -1.12109375 40.48828125 C4.0672646 28.97265663 1.65271843 12.71913829 -2 1 C-1.34 0.67 -0.68 0.34 0 0 Z " fill="#E16062" transform="translate(476,594)"/>
<path d="M0 0 C0.79719955 0.00222061 1.59439911 0.00444122 2.41575623 0.00672913 C3.31661453 0.00680466 4.21747284 0.00688019 5.14562988 0.00695801 C6.12478867 0.01211929 7.10394745 0.01728058 8.11277771 0.02259827 C9.11018478 0.02401321 10.10759186 0.02542816 11.13522339 0.02688599 C14.3348027 0.03250337 17.53431315 0.04505881 20.73387146 0.05775452 C22.89728191 0.06276728 25.06069345 0.06733057 27.22410583 0.07142639 C32.53988471 0.08247845 37.85562317 0.09923348 43.17137146 0.12025452 C43.66637146 2.10025452 43.66637146 2.10025452 44.17137146 4.12025452 C35.66935993 6.56939913 27.36497185 6.2328074 18.62815857 5.89881897 C16.21507991 5.8070398 13.80192439 5.7328015 11.38816833 5.66127014 C9.84842144 5.61084614 8.30870603 5.55944948 6.76902771 5.50697327 C6.05029984 5.48398666 5.33157196 5.46100006 4.59106445 5.43731689 C1.549685 5.31715599 -0.92212931 5.08908759 -3.82862854 4.12025452 C-6.2211743 3.89464776 -8.61790977 3.71176857 -11.01612854 3.55775452 C-12.28843323 3.47396545 -13.56073792 3.39017639 -14.87159729 3.30384827 C-15.8474176 3.24326233 -16.82323792 3.18267639 -17.82862854 3.12025452 C-17.82862854 2.79025452 -17.82862854 2.46025452 -17.82862854 2.12025452 C-16.7574176 2.05966858 -15.68620667 1.99908264 -14.58253479 1.93666077 C-13.18538463 1.85226915 -11.78824997 1.76762046 -10.39112854 1.68275452 C-9.33055237 1.62377991 -9.33055237 1.62377991 -8.24855042 1.56361389 C-5.16890258 1.37205685 -2.73580644 0.17991247 0 0 Z " fill="#DA3F41" transform="translate(409.82862854003906,658.8797454833984)"/>
<path d="M0 0 C0.33 0 0.66 0 1 0 C2.14449635 6.23114677 1.57274729 10.85991096 -1.96972656 16.22558594 C-7.42577893 23.78748308 -13.8872527 30.01160451 -21 36 C-21.99 35.01 -22.98 34.02 -24 33 C-22.56809774 29.64905346 -20.83088695 27.78353674 -18.125 25.375 C-10.83357937 18.30920965 -4.54098515 9.08197029 0 0 Z " fill="#D75A5C" transform="translate(646,522)"/>
<path d="M0 0 C4.66308199 -0.02468646 9.32612608 -0.04285349 13.98925781 -0.05493164 C15.57617861 -0.05996588 17.16309477 -0.06679369 18.75 -0.07543945 C21.02865749 -0.08754482 23.30725376 -0.09323733 25.5859375 -0.09765625 C26.65320572 -0.10539818 26.65320572 -0.10539818 27.74203491 -0.11329651 C32.77225659 -0.11387171 32.77225659 -0.11387171 35 1 C35.83757194 6.44421761 33.89975779 9.40261402 30.8671875 13.67578125 C27.86435093 17.41362175 24.50463313 20.73553208 21 24 C19.35 23.34 17.7 22.68 16 22 C16.89364515 20.79004746 17.79005779 19.58213889 18.6875 18.375 C19.23148438 17.6428125 19.77546875 16.910625 20.3359375 16.15625 C21.76071324 14.31006172 23.24513424 12.59818575 24.8125 10.875 C27.51488999 7.7870994 27.51488999 7.7870994 28 2 C14.14 1.505 14.14 1.505 0 1 C0 0.67 0 0.34 0 0 Z " fill="#DA666A" transform="translate(842,464)"/>
<path d="M0 0 C0.89425186 0.01041321 1.78850372 0.02082642 2.70985413 0.03155518 C3.67241623 0.04917908 4.63497833 0.06680298 5.62670898 0.08496094 C7.11145973 0.1097049 7.11145973 0.1097049 8.62620544 0.13494873 C10.71846973 0.17244003 12.81068119 0.21298535 14.90283203 0.25634766 C18.113463 0.31915324 21.32393642 0.36053198 24.53491211 0.40136719 C26.56553694 0.44040862 28.59613765 0.48072972 30.62670898 0.52246094 C31.59129532 0.53198792 32.55588165 0.54151489 33.54969788 0.55133057 C34.44079758 0.57435242 35.33189728 0.59737427 36.25 0.62109375 C37.03593033 0.63521301 37.82186066 0.64933228 38.63160706 0.66387939 C40.56030273 1.06933594 40.56030273 1.06933594 42.56030273 4.06933594 C26.06030273 4.06933594 9.56030273 4.06933594 -7.43969727 4.06933594 C-7.43969727 3.07933594 -7.43969727 2.08933594 -7.43969727 1.06933594 C-4.59709797 0.12180284 -2.9369536 -0.04082888 0 0 Z " fill="#ED6D70" transform="translate(250.439697265625,607.9306640625)"/>
<path d="M0 0 C0.33 0.66 0.66 1.32 1 2 C0.01 2.495 0.01 2.495 -1 3 C-1.391875 3.86625 -1.78375 4.7325 -2.1875 5.625 C-4.47035579 9.87583491 -7.48718338 12.74703557 -11 16 C-11.66 15.01 -12.32 14.02 -13 13 C-15.31 16.3 -17.62 19.6 -20 23 C-20.66 22.67 -21.32 22.34 -22 22 C-19.02563321 13.95171339 -14.40321315 5.62700822 -7 1 C-3.125 0.1875 -3.125 0.1875 0 0 Z " fill="#B93134" transform="translate(266,405)"/>
<path d="M0 0 C1.32 0 2.64 0 4 0 C6.06859473 4.13718946 3.12275486 9.80396274 1.74023438 13.99511719 C-0.31525216 19.56228586 -3.18110914 24.78980286 -6 30 C-6.33 30 -6.66 30 -7 30 C-7.70894724 22.13856283 -6.36720046 16.28829348 -3.2890625 9.04296875 C-2.02837518 6.06698262 -0.98427839 3.07701982 0 0 Z " fill="#E36867" transform="translate(654,501)"/>
<path d="M0 0 C10.89 0 21.78 0 33 0 C33.495 1.485 33.495 1.485 34 3 C37.02282643 4.03547047 37.02282643 4.03547047 40.5625 4.6875 C42.35880859 5.06455078 42.35880859 5.06455078 44.19140625 5.44921875 C45.11824219 5.63097656 46.04507813 5.81273437 47 6 C46.34 7.65 45.68 9.3 45 11 C40.05 9.35 35.1 7.7 30 6 C30.33 4.68 30.66 3.36 31 2 C20.77 2 10.54 2 0 2 C0 1.34 0 0.68 0 0 Z " fill="#D93A3C" transform="translate(518,450)"/>
<path d="M0 0 C2.23920243 3.35880365 2.24603334 4.51576604 2.1875 8.4375 C2.18105469 9.38496094 2.17460937 10.33242188 2.16796875 11.30859375 C2.01959281 13.6860594 1.67263878 15.72379037 1 18 C0.34 18 -0.32 18 -1 18 C-0.649375 18.99 -0.29875 19.98 0.0625 21 C1.92096146 27.53756656 -0.02866793 33.69173738 -2 40 C-2.99 40 -3.98 40 -5 40 C-5.46828953 31.2716034 -4.01581794 22.93072409 -2.5 14.375 C-2.25835269 12.97539175 -2.01746172 11.57565269 -1.77734375 10.17578125 C-1.19359686 6.78230361 -0.59967297 3.39070409 0 0 Z " fill="#D33132" transform="translate(236,622)"/>
<path d="M0 0 C7.25405748 0.85341853 12.02404454 5.72767927 16.875 10.75 C17.37257813 11.25660156 17.87015625 11.76320313 18.3828125 12.28515625 C19.59323202 13.51885307 20.79729853 14.75877784 22 16 C21.01 16.33 20.02 16.66 19 17 C18.67 17.66 18.34 18.32 18 19 C3.62790698 5.93023256 3.62790698 5.93023256 0 2 C0 1.34 0 0.68 0 0 Z " fill="#D23E43" transform="translate(572,626)"/>
<path d="M0 0 C6.47188093 0.16179702 9.60279253 3.74963805 14 8 C14.76699219 8.68191406 15.53398438 9.36382813 16.32421875 10.06640625 C17.06285156 10.74574219 17.80148437 11.42507813 18.5625 12.125 C19.24441406 12.74632812 19.92632813 13.36765625 20.62890625 14.0078125 C22 16 22 16 21.71484375 18.7421875 C21.47894531 19.48726562 21.24304688 20.23234375 21 21 C15.95179121 16.77041966 11.20353723 12.35800414 6.5625 7.6875 C5.92634766 7.05521484 5.29019531 6.42292969 4.63476562 5.77148438 C4.03470703 5.17013672 3.43464844 4.56878906 2.81640625 3.94921875 C2.27443604 3.40612061 1.73246582 2.86302246 1.17407227 2.3034668 C0 1 0 1 0 0 Z " fill="#D33539" transform="translate(506,563)"/>
<path d="M0 0 C6.42780366 0 9.366498 2.5915095 13.984375 6.89453125 C15.86315484 8.85705515 17.54167116 10.70700063 19 13 C18.6875 15.75 18.6875 15.75 18 18 C13.34530934 14.12109111 9.01359974 10.08603494 4.796875 5.734375 C2.91395053 3.81354893 2.91395053 3.81354893 0 2 C0 1.34 0 0.68 0 0 Z " fill="#D14144" transform="translate(543,599)"/>
<path d="M0 0 C0.33 0 0.66 0 1 0 C1.76490782 7.57825341 1.01088145 12.20721424 -3.4921875 18.41796875 C-3.98976563 18.94003906 -4.48734375 19.46210937 -5 20 C-5.66 20 -6.32 20 -7 20 C-7.66 19.34 -8.32 18.68 -9 18 C-9.99 18.66 -10.98 19.32 -12 20 C-9.92714998 15.73212339 -7.44843383 11.77033535 -4.9375 7.75 C-4.24817383 6.63238281 -4.24817383 6.63238281 -3.54492188 5.4921875 C-3.10599609 4.78835938 -2.66707031 4.08453125 -2.21484375 3.359375 C-1.81386475 2.71452148 -1.41288574 2.06966797 -0.99975586 1.40527344 C-0.66983643 0.9415332 -0.33991699 0.47779297 0 0 Z " fill="#DD5151" transform="translate(646,522)"/>
<path d="M0 0 C-1.35945053 7.18109752 -7.17912766 12.9506975 -13 17 C-14.32 17 -15.64 17 -17 17 C-15.44552062 13.3979537 -13.252552 10.83129897 -10.625 7.9375 C-9.85414063 7.08027344 -9.08328125 6.22304688 -8.2890625 5.33984375 C-3.06510851 0 -3.06510851 0 0 0 Z " fill="#C11315" transform="translate(692,574)"/>
<path d="M0 0 C5.75845536 0.39539956 8.6182247 1.77646856 12.9375 5.5625 C13.89527344 6.38878906 14.85304688 7.21507812 15.83984375 8.06640625 C16.90912109 9.02353516 16.90912109 9.02353516 18 10 C17.67 11.65 17.34 13.3 17 15 C1.74927954 5.24783862 1.74927954 5.24783862 0 0 Z " fill="#DA4244" transform="translate(318,533)"/>
<path d="M0 0 C7.61627627 0.39057827 13.15046695 5.57976461 19 10 C18.67 11.65 18.34 13.3 18 15 C13.624592 12.57745772 9.96747278 9.61136466 6.1875 6.375 C5.59001953 5.87226563 4.99253906 5.36953125 4.37695312 4.8515625 C2.8963868 3.5926581 1.44527582 2.29926699 0 1 C0 0.67 0 0.34 0 0 Z " fill="#D34446" transform="translate(265,488)"/>
<path d="M0 0 C0.33 0 0.66 0 1 0 C1.41925098 3.01921026 1.81082198 6.03793152 2.1875 9.0625 C2.30802734 9.91005859 2.42855469 10.75761719 2.55273438 11.63085938 C3.23917664 17.36597381 2.98933016 20.9821958 0 26 C-3.1875 26.9375 -3.1875 26.9375 -6 27 C-5.54166667 25.625 -5.08333333 24.25 -4.625 22.875 C-4.35171875 22.04355469 -4.0784375 21.21210937 -3.796875 20.35546875 C-3.20788444 18.61448194 -2.55758585 16.89396462 -1.875 15.1875 C-0.50877507 10.21053774 -0.31587992 5.13720506 0 0 Z " fill="#D82F32" transform="translate(586,494)"/>
<path d="M0 0 C4.05392295 4.05392295 3.04659216 11.54803993 3.06591797 16.9934082 C3.06095822 19.99582929 3.03559921 22.99779978 3 26 C2.01 25.67 1.02 25.34 0 25 C-1.54063629 21.91872742 -1.14327206 18.68978658 -1.125 15.3125 C-1.12886719 14.61705078 -1.13273438 13.92160156 -1.13671875 13.20507812 C-1.12831616 8.70548924 -0.73315961 4.43968875 0 0 Z " fill="#CD0E11" transform="translate(243,439)"/>
<path d="M0 0 C3.59057674 0.61482478 5.77333525 2.08553104 8.625 4.3125 C9.40101563 4.90675781 10.17703125 5.50101563 10.9765625 6.11328125 C12.98754086 7.9883827 13.96475077 9.47866719 15 12 C8.93045781 11.8735512 6.02461894 9.84127008 1.50390625 5.88671875 C0 4 0 4 0 0 Z " fill="#BA292A" transform="translate(379,511)"/>
<path d="M0 0 C0 2.1875 0 2.1875 -1 5 C-4.40174626 7.82207649 -7.52100274 10 -12 10 C-12.26953125 7.7109375 -12.26953125 7.7109375 -12 5 C-10.13671875 3.1640625 -10.13671875 3.1640625 -7.6875 1.625 C-6.88699219 1.10164062 -6.08648437 0.57828125 -5.26171875 0.0390625 C-3 -1 -3 -1 0 0 Z " fill="#D8696A" transform="translate(466,652)"/>
<path d="M0 0 C5.45366395 3.35610089 10.64492699 7.28684321 15 12 C15 12.99 15 13.98 15 15 C12.125 14.75 12.125 14.75 9 14 C8 12.1875 8 12.1875 7 10 C5.04402816 8.60287726 3.04563599 7.26220093 1 6 C0 5 0 5 -0.0625 2.4375 C-0.041875 1.633125 -0.02125 0.82875 0 0 Z " fill="#C0292C" transform="translate(639,586)"/>
<path d="M0 0 C1.010625 0.33 2.02125 0.66 3.0625 1 C-3.08784169 8.48291572 -3.08784169 8.48291572 -6.9375 11 C-8.2575 10.01 -9.5775 9.02 -10.9375 8 C-5.17820022 0 -5.17820022 0 0 0 Z " fill="#DA686C" transform="translate(868.9375,477)"/>
<path d="M0 0 C0.99 0.33 1.98 0.66 3 1 C1.45068835 7.6620401 -2.29703548 10.15706965 -7.75 13.875 C-8.86375 14.431875 -8.86375 14.431875 -10 15 C-10.66 14.67 -11.32 14.34 -12 14 C-11.46890625 13.40832031 -10.9378125 12.81664062 -10.390625 12.20703125 C-6.82185937 8.21496312 -3.27989772 4.23653455 0 0 Z " fill="#B94648" transform="translate(722,535)"/>
<path d="M0 0 C0.875 2.0625 0.875 2.0625 1 5 C-0.73919133 7.59005725 -2.80397934 9.79124879 -5 12 C-6.32 11.34 -7.64 10.68 -9 10 C-8.42110619 6.71245489 -7.45171589 5.06327505 -5.0625 2.75 C-4.53785156 2.22921875 -4.01320313 1.7084375 -3.47265625 1.171875 C-2 0 -2 0 0 0 Z " fill="#DB6466" transform="translate(732,626)"/>
<path d="M0 0 C0.99 0.33 1.98 0.66 3 1 C-0.72346836 5.42094803 -4.29521038 9.57833482 -9 13 C-9.33 11.35 -9.66 9.7 -10 8 C-8.71064081 6.85157077 -7.41843421 5.70633773 -6.125 4.5625 C-5.04605469 3.60537109 -5.04605469 3.60537109 -3.9453125 2.62890625 C-2 1 -2 1 0 0 Z " fill="#D00E12" transform="translate(715,547)"/>
<path d="M0 0 C0.99 0.33 1.98 0.66 3 1 C1.63629701 3.99220268 0.05091917 6.29026529 -2.125 8.75 C-2.93324219 9.67039062 -2.93324219 9.67039062 -3.7578125 10.609375 C-4.37269531 11.29773438 -4.37269531 11.29773438 -5 12 C-6.32 11.34 -7.64 10.68 -9 10 C-7.63491499 6.88271632 -6.13080302 4.91336262 -3.5625 2.6875 C-2.96566406 2.15511719 -2.36882813 1.62273437 -1.75390625 1.07421875 C-1.17511719 0.71972656 -0.59632813 0.36523438 0 0 Z " fill="#CC0F12" transform="translate(755,500)"/>
<path d="M0 0 C1.958964 0.30852185 3.91715713 0.6219418 5.875 0.9375 C6.96554687 1.11152344 8.05609375 1.28554688 9.1796875 1.46484375 C12 2 12 2 14 3 C13.34 4.65 12.68 6.3 12 8 C7.71 6.68 3.42 5.36 -1 4 C-0.67 2.68 -0.34 1.36 0 0 Z " fill="#D94245" transform="translate(551,453)"/>
<path d="M0 0 C0.99 0 1.98 0 3 0 C3.3125 2.75 3.3125 2.75 3 6 C0.26513033 9.05661905 -1.20163153 9.93974578 -5.3125 10.25 C-6.199375 10.1675 -7.08625 10.085 -8 10 C-7.04367001 8.70684939 -6.08486149 7.41553147 -5.125 6.125 C-4.59132813 5.40570313 -4.05765625 4.68640625 -3.5078125 3.9453125 C-2 2 -2 2 0 0 Z " fill="#BA3336" transform="translate(777,472)"/>
<path d="M0 0 C0.99 0.66 1.98 1.32 3 2 C-2.29411765 8.76470588 -2.29411765 8.76470588 -6 10 C-6.99 10 -7.98 10 -9 10 C-7.68954637 6.06863911 -6.16791954 3.68793173 -3 1 C-2.01 0.67 -1.02 0.34 0 0 Z " fill="#C61215" transform="translate(772,481)"/>
<path d="M0 0 C2.23920243 3.35880365 2.24603334 4.51576604 2.1875 8.4375 C2.18105469 9.38496094 2.17460937 10.33242188 2.16796875 11.30859375 C2.01959281 13.6860594 1.67263878 15.72379037 1 18 C0.34 18 -0.32 18 -1 18 C-1 18.99 -1 19.98 -1 21 C-1.66 21 -2.32 21 -3 21 C-2.17321655 13.97234063 -1.09751783 6.99001647 0 0 Z " fill="#E13739" transform="translate(236,622)"/>
<path d="M0 0 C0.99 0.99 1.98 1.98 3 3 C-0.875 8.875 -0.875 8.875 -2 10 C-3.66617115 10.04063832 -5.33388095 10.042721 -7 10 C-5.76075855 5.04303419 -4.21422242 2.88341534 0 0 Z " fill="#E16465" transform="translate(637,539)"/>
<path d="M0 0 C0.33 0 0.66 0 1 0 C1.32098157 8.35740901 1.21819111 15.22270481 -2 23 C-2.66 22.34 -3.32 21.68 -4 21 C-4 19.68 -4 18.36 -4 17 C-3.34 17 -2.68 17 -2 17 C-1.93941406 15.85660156 -1.87882813 14.71320312 -1.81640625 13.53515625 C-1.73201572 12.04425695 -1.64736698 10.55337225 -1.5625 9.0625 C-1.50352539 7.93038086 -1.50352539 7.93038086 -1.44335938 6.77539062 C-1.11328125 1.11328125 -1.11328125 1.11328125 0 0 Z " fill="#E30D11" transform="translate(239,623)"/>
<path d="M0 0 C0.7425 0.2475 1.485 0.495 2.25 0.75 C0.6669423 5.0242558 -2.25568404 7.01531794 -5.75 9.75 C-6.75 8.75 -6.75 8.75 -7.0625 6.4375 C-6.75 3.75 -6.75 3.75 -5.0625 1.375 C-2.75 -0.25 -2.75 -0.25 0 0 Z " fill="#CF3F44" transform="translate(859.75,486.25)"/>
<path d="M0 0 C0.33 0.66 0.66 1.32 1 2 C0.67 2.66 0.34 3.32 0 4 C0.66 4 1.32 4 2 4 C0.4169423 8.2742558 -2.50568404 10.26531794 -6 13 C-6.71484375 10.76953125 -6.71484375 10.76953125 -7 8 C-5.56640625 5.76171875 -5.56640625 5.76171875 -3.5625 3.6875 C-2.57443359 2.64142578 -2.57443359 2.64142578 -1.56640625 1.57421875 C-1.04949219 1.05472656 -0.53257812 0.53523437 0 0 Z " fill="#D24547" transform="translate(738,617)"/>
<path d="M0 0 C0.33 0 0.66 0 1 0 C2.01871227 4.88317511 2.65965743 8.61543745 0.0625 13.0625 C-0.618125 14.031875 -1.29875 15.00125 -2 16 C-2.33 16 -2.66 16 -3 16 C-3.56122991 4.1310267 -3.56122991 4.1310267 0 0 Z " fill="#E67270" transform="translate(650,515)"/>
<path d="M0 0 C1.34709162 0.87500817 2.67738986 1.77590933 4 2.6875 C4.7425 3.18636719 5.485 3.68523438 6.25 4.19921875 C8 6 8 6 8.25 8.70703125 C8.1675 9.46371094 8.085 10.22039063 8 11 C1.125 7.125 1.125 7.125 0 6 C-0.04080783 4.00041636 -0.04254356 1.99954746 0 0 Z " fill="#D13B3C" transform="translate(431,553)"/>
<path d="M0 0 C-0.50179302 4.34887281 -3.06147116 6.9247954 -6 10 C-8.3125 10.875 -8.3125 10.875 -10 11 C-10 8 -10 8 -8.3203125 5.95703125 C-7.23363281 4.89548828 -7.23363281 4.89548828 -6.125 3.8125 C-5.40570312 3.09707031 -4.68640625 2.38164063 -3.9453125 1.64453125 C-2 0 -2 0 0 0 Z " fill="#C30D0F" transform="translate(744,515)"/>
<path d="M0 0 C1.11375 0.3403125 1.11375 0.3403125 2.25 0.6875 C0.89978174 5.10639613 -1.01115668 7.03095343 -4.75 9.6875 C-4.75 7.7075 -4.75 5.7275 -4.75 3.6875 C-5.41 3.3575 -6.07 3.0275 -6.75 2.6875 C-4.29511132 0.41445492 -3.41240272 -0.38777304 0 0 Z " fill="#CD1A1D" transform="translate(784.75,468.3125)"/>
<path d="M0 0 C0.66 1.32 1.32 2.64 2 4 C0.92781799 5.01194706 -0.15826378 6.00918057 -1.25 7 C-2.15492188 7.8353125 -2.15492188 7.8353125 -3.078125 8.6875 C-5 10 -5 10 -9 10 C-7.61811547 6.78956118 -6.07578097 4.95063635 -3.375 2.75 C-2.74335937 2.22921875 -2.11171875 1.7084375 -1.4609375 1.171875 C-0.73777344 0.59179688 -0.73777344 0.59179688 0 0 Z " fill="#B30F11" transform="translate(684,581)"/>
<path d="M0 0 C3.78611227 0.54087318 5.55400767 2.11722332 8 5 C8 5.66 8 6.32 8 7 C6.3125 7.75 6.3125 7.75 4 8 C1.25 6.0625 1.25 6.0625 -1 4 C-0.67 2.68 -0.34 1.36 0 0 Z " fill="#BD282A" transform="translate(458,577)"/>
<path d="M0 0 C3.26460973 1.80412643 4.88929795 2.83394693 7 6 C7.125 8.6875 7.125 8.6875 7 11 C5.1875 10.9375 5.1875 10.9375 3 10 C1.18721244 6.5039097 0 3.96018245 0 0 Z " fill="#B72529" transform="translate(638,437)"/>
<path d="M0 0 C1.65 0.33 3.3 0.66 5 1 C4.42655063 3.86724686 4.1385485 4.8614515 2 7 C-1.125 6.625 -1.125 6.625 -4 6 C-2.68 4.02 -1.36 2.04 0 0 Z " fill="#D25053" transform="translate(870,471)"/>
<path d="M0 0 C2.64 1.65 5.28 3.3 8 5 C7.67 6.65 7.34 8.3 7 10 C5.68388323 9.04663979 4.37221039 8.08714226 3.0625 7.125 C2.33160156 6.59132813 1.60070312 6.05765625 0.84765625 5.5078125 C-1 4 -1 4 -2 2 C-1.34 2 -0.68 2 0 2 C0 1.34 0 0.68 0 0 Z " fill="#D83E40" transform="translate(286,502)"/>
<path d="M0 0 C2.64 0.66 5.28 1.32 8 2 C8.33 3.65 8.66 5.3 9 7 C8.01 7.495 8.01 7.495 7 8 C5.82512964 7.24172908 4.66027408 6.46792245 3.5 5.6875 C2.52546875 5.04361328 2.52546875 5.04361328 1.53125 4.38671875 C1.0259375 3.92910156 0.520625 3.47148437 0 3 C0 2.01 0 1.02 0 0 Z " fill="#D1393D" transform="translate(275,495)"/>
<path d="M0 0 C4.28324091 2.51407619 6.64531705 4.12314139 8 9 C5.3364031 8.64005447 3.41816548 8.28838998 1.1875 6.75 C-0.39364795 4.41988723 -0.22337696 2.75498245 0 0 Z " fill="#BA2829" transform="translate(439,560)"/>
<path d="M0 0 C0.99 0.33 1.98 0.66 3 1 C3 1.66 3 2.32 3 3 C3.99 3 4.98 3 6 3 C6 4.98 6 6.96 6 9 C2.66476748 7.61990379 0.81392049 6.15049348 -1 3 C-0.67 2.01 -0.34 1.02 0 0 Z " fill="#DB474A" transform="translate(565,617)"/>
<path d="M0 0 C2 3 2 3 2 6 C0.1875 7.75 0.1875 7.75 -2 9 C-2.99 8.67 -3.98 8.34 -5 8 C-4.45773019 4.20411134 -2.79872437 2.52788007 0 0 Z " fill="#BC0F11" transform="translate(730,527)"/>
<path d="M0 0 C0.6875 2.25 0.6875 2.25 1 5 C-0.25 7.3125 -0.25 7.3125 -2 9 C-2.99 9 -3.98 9 -5 9 C-5.36666667 3.5 -5.36666667 3.5 -3.625 1.125 C-2 0 -2 0 0 0 Z " fill="#DC787A" transform="translate(852,494)"/>
<path d="M0 0 C0.99 0.33 1.98 0.66 3 1 C2.59316505 3.35964273 2.10185661 4.85934088 0.6875 6.8125 C-1 8 -1 8 -3.1875 7.6875 C-3.785625 7.460625 -4.38375 7.23375 -5 7 C-1.125 1.125 -1.125 1.125 0 0 Z " fill="#DC787A" transform="translate(783,568)"/>
<path d="M0 0 C3.3 0 6.6 0 10 0 C9.01 0.33 8.02 0.66 7 1 C7 1.99 7 2.98 7 4 C4.36 4 1.72 4 -1 4 C-0.67 2.68 -0.34 1.36 0 0 Z " fill="#DD676C" transform="translate(313,452)"/>
<path d="M0 0 C4.67692308 1.47692308 4.67692308 1.47692308 6.3125 4.125 C6.539375 4.74375 6.76625 5.3625 7 6 C4.625 6.625 4.625 6.625 2 7 C0 5 0 5 -0.125 2.375 C-0.08375 1.59125 -0.0425 0.8075 0 0 Z " fill="#B52326" transform="translate(629,427)"/>
<path d="M0 0 C2.49361571 1.20381448 4.68143083 2.45428722 7 4 C7 4.99 7 5.98 7 7 C5.35 7 3.7 7 2 7 C0.5393715 4.35261084 0 3.10551666 0 0 Z " fill="#B82527" transform="translate(449,569)"/>
<path d="M0 0 C2.3125 -0.25 2.3125 -0.25 5 0 C6.8125 2 6.8125 2 8 4 C7.67 4.66 7.34 5.32 7 6 C2.32307692 4.52307692 2.32307692 4.52307692 0.6875 1.875 C0.460625 1.25625 0.23375 0.6375 0 0 Z " fill="#D43335" transform="translate(320,462)"/>
<path d="M0 0 C0.66 0 1.32 0 2 0 C0.125 4.75 0.125 4.75 -1 7 C-2.32 6.67 -3.64 6.34 -5 6 C-3.38405168 3.95880212 -1.7143618 1.95927063 0 0 Z " fill="#B51114" transform="translate(672,595)"/>
<path d="M0 0 C0.33 0 0.66 0 1 0 C1.05391993 1.79133978 1.09275571 3.58313899 1.125 5.375 C1.14820313 6.37273437 1.17140625 7.37046875 1.1953125 8.3984375 C1 11 1 11 -1 13 C-1.66 11.02 -2.32 9.04 -3 7 C-2.01 7 -1.02 7 0 7 C0 4.69 0 2.38 0 0 Z " fill="#E4090E" transform="translate(590,495)"/>
</svg>
